<svg id="Ebene_1" data-name="Ebene 1" xmlns="http://www.w3.org/2000/svg" viewBox="0 0 120 92.58"><defs><style>.cls-1{fill:#fff;}</style></defs><path class="cls-1" d="M6.75,87.46a5.89,5.89,0,0,1-3-.75,5.23,5.23,0,0,1-2-2.14,7.68,7.68,0,0,1,0-6.62A5.31,5.31,0,0,1,3.77,75.8a5.89,5.89,0,0,1,3-.75,6.36,6.36,0,0,1,1.87.27,5.24,5.24,0,0,1,1.57.78,4.5,4.5,0,0,1,1.17,1.25A4.61,4.61,0,0,1,12,79H10.34a3,3,0,0,0-.47-1.1A3.12,3.12,0,0,0,9,77.13,3.6,3.6,0,0,0,8,76.64a4.49,4.49,0,0,0-1.22-.16A4.11,4.11,0,0,0,4.63,77a3.84,3.84,0,0,0-1.49,1.62,6.47,6.47,0,0,0,0,5.22,3.93,3.93,0,0,0,1.5,1.62A4.17,4.17,0,0,0,6.75,86,4.49,4.49,0,0,0,8,85.87,3.87,3.87,0,0,0,9,85.38a3.12,3.12,0,0,0,.83-.79,3,3,0,0,0,.47-1.1H12a4.55,4.55,0,0,1-.63,1.66A4.64,4.64,0,0,1,10.2,86.4a5.2,5.2,0,0,1-1.58.79A6.31,6.31,0,0,1,6.75,87.46Z"/><path class="cls-1" d="M19.68,87.3l4.73-12.09h1.93L31.13,87.3H29.38l-2.76-7.17c-.17-.45-.37-1-.6-1.66s-.49-1.51-.81-2.54h.31c-.31,1-.59,1.9-.82,2.57s-.42,1.22-.57,1.63L21.45,87.3Zm2.38-3.38V82.58h6.69v1.34Z"/><path class="cls-1" d="M39.75,87.3V75.21h4.46a5.27,5.27,0,0,1,2.5.52,3.32,3.32,0,0,1,1.46,1.38,4.2,4.2,0,0,1,0,3.9,3.39,3.39,0,0,1-1.45,1.4,5.42,5.42,0,0,1-2.5.52H41.06V81.57h3.08a3.57,3.57,0,0,0,1.66-.33,2,2,0,0,0,.91-.9A2.83,2.83,0,0,0,47,79.06a2.8,2.8,0,0,0-.29-1.28,2,2,0,0,0-.91-.89,3.84,3.84,0,0,0-1.68-.32H41.41V87.3Z"/><path class="cls-1" d="M59.44,75.21V87.3H57.78V75.21Z"/><path class="cls-1" d="M68.46,76.58V75.21h9.85v1.37H74.22V87.3H72.56V76.58Z"/><path class="cls-1" d="M84.69,87.3l4.73-12.09h1.93L96.14,87.3H94.39l-2.77-7.17c-.16-.45-.36-1-.58-1.66s-.5-1.51-.82-2.54h.31c-.31,1-.59,1.9-.82,2.57s-.42,1.22-.57,1.63L86.46,87.3Zm2.38-3.38V82.58h6.69v1.34Z"/><path class="cls-1" d="M104.76,87.3V75.21h1.66V85.94h6V87.3Z"/><path class="cls-1" d="M1,67.67V66.29H112.53v1.38Z"/><path class="cls-1" d="M1,58.42c.45-1.07.82-2,1.24-2.93q6-13.27,12.09-26.55L23,9.8c1.4-3.07,2.78-6.15,4.21-9.22A1,1,0,0,1,28,.1c3.08,0,6.16,0,9.24,0a1,1,0,0,1,.7.42q2.36,5,4.65,10.07l6,13.08c2.18,4.76,4.38,9.5,6.56,14.26q4.35,9.46,8.66,19a15.73,15.73,0,0,1,.55,1.54H63.2c-3.06,0-6.11,0-9.17,0A1,1,0,0,1,53,57.76c-1.89-4.16-3.82-8.3-5.71-12.47a1.11,1.11,0,0,0-1.19-.77q-13.54,0-27.09,0a1.1,1.1,0,0,0-1.18.78Q15,51.61,12.14,57.89a1,1,0,0,1-.65.51C8.06,58.43,4.64,58.42,1,58.42ZM22,35.53H43c-3.53-7.88-7-15.67-10.55-23.59Z"/><path class="cls-1" d="M58.2.07H83.36a30,30,0,0,1,17.55,5.64,26.06,26.06,0,0,1,8.74,10.53,29.88,29.88,0,0,1,2.56,17.22,27.7,27.7,0,0,1-11.09,19,30.4,30.4,0,0,1-18.62,6c-4.27,0-8.53,0-12.8,0a.89.89,0,0,1-1-.61c-2.57-5.74-5.18-11.47-7.77-17.2-.85-1.89-1.7-3.78-2.53-5.67a3.6,3.6,0,0,1-.28-1.24q0-16.48,0-33C58.16.57,58.18.38,58.2.07ZM68.83,49.14c4,0,7.83,0,11.69,0a23.46,23.46,0,0,0,8.39-1.33,18.15,18.15,0,0,0,9.35-7.11A21,21,0,0,0,101.39,27a19.19,19.19,0,0,0-3-9.1c-3.74-5.64-9.13-8.37-15.74-8.59-4.34-.15-8.69,0-13,0-.26,0-.51,0-.8,0Z"/></svg>