<svg id="Ebene_1" data-name="Ebene 1" xmlns="http://www.w3.org/2000/svg" viewBox="0 0 267.61 206.46"><defs><style>.cls-1{fill:#0a0f1c;}</style></defs><path class="cls-1" d="M15.27,194.88a13,13,0,0,1-6.64-1.67,11.83,11.83,0,0,1-4.58-4.77,17.16,17.16,0,0,1,0-14.77,11.92,11.92,0,0,1,4.58-4.78,13.06,13.06,0,0,1,6.64-1.68,14.42,14.42,0,0,1,4.16.59A11.66,11.66,0,0,1,23,169.55a10.32,10.32,0,0,1,2.6,2.79A10.51,10.51,0,0,1,27,176.05h-3.7a6.67,6.67,0,0,0-1.07-2.44,7,7,0,0,0-1.83-1.77A8.25,8.25,0,0,0,18,170.75a10.22,10.22,0,0,0-2.73-.36,9.21,9.21,0,0,0-4.72,1.23,8.65,8.65,0,0,0-3.33,3.61A12.6,12.6,0,0,0,6,181.06a12.43,12.43,0,0,0,1.24,5.82,8.58,8.58,0,0,0,3.34,3.6,9.23,9.23,0,0,0,4.7,1.22,9.83,9.83,0,0,0,2.73-.37,8.52,8.52,0,0,0,2.39-1.09,6.76,6.76,0,0,0,2.9-4.2H27a10.09,10.09,0,0,1-1.41,3.69A10.82,10.82,0,0,1,23,192.52a11.74,11.74,0,0,1-3.52,1.76A14.17,14.17,0,0,1,15.27,194.88Z"/><path class="cls-1" d="M44.11,194.52l10.55-27H59l10.69,27h-3.9l-6.17-16c-.37-1-.81-2.22-1.31-3.7s-1.11-3.36-1.83-5.65h.71c-.71,2.31-1.31,4.22-1.83,5.72s-.94,2.72-1.27,3.63l-6,16Zm5.3-7.52v-3H64.33v3Z"/><path class="cls-1" d="M88.86,194.52v-27h10a12,12,0,0,1,5.59,1.15,7.58,7.58,0,0,1,3.25,3.08,9.38,9.38,0,0,1,0,8.7,7.62,7.62,0,0,1-3.24,3.11,11.78,11.78,0,0,1-5.58,1.16h-7v-3h6.86a8,8,0,0,0,3.71-.73,4.61,4.61,0,0,0,2-2,6.37,6.37,0,0,0,.63-2.87,6.29,6.29,0,0,0-.63-2.85,4.63,4.63,0,0,0-2.05-2,8.3,8.3,0,0,0-3.74-.72h-6v23.93Z"/><path class="cls-1" d="M132.78,167.57v27h-3.71v-27Z"/><path class="cls-1" d="M152.9,170.61v-3h22v3h-9.11v23.91H162V170.61Z"/><path class="cls-1" d="M189.09,194.52l10.55-27h4.29l10.69,27h-3.91l-6.16-16c-.38-1-.81-2.22-1.31-3.7s-1.11-3.36-1.83-5.65h.7q-1.05,3.47-1.82,5.72c-.51,1.51-.94,2.72-1.28,3.63l-6,16Zm5.3-7.52v-3h14.92v3Z"/><path class="cls-1" d="M233.84,194.52v-27h3.7v23.91H251v3Z"/><path class="cls-1" d="M2.41,150.74v-3.07H251.18v3.07Z"/><path class="cls-1" d="M2.41,130.12c1-2.38,1.83-4.47,2.76-6.52Q18.64,94,32.13,64.39L51.6,21.7C54.72,14.85,57.81,8,61,1.14A2.33,2.33,0,0,1,62.68.05Q73-.06,83.29.05A2.1,2.1,0,0,1,84.86,1q5.25,11.19,10.37,22.44c4.44,9.72,8.84,19.46,13.29,29.17,4.86,10.61,9.77,21.19,14.63,31.8q9.69,21.13,19.32,42.29c.46,1,.76,2.1,1.22,3.42h-2.53c-6.81,0-13.63,0-20.44.06a2.21,2.21,0,0,1-2.41-1.52c-4.21-9.28-8.53-18.52-12.74-27.81a2.46,2.46,0,0,0-2.65-1.71q-30.21.09-60.42,0a2.44,2.44,0,0,0-2.63,1.73q-6.21,14.07-12.58,28.07a2.1,2.1,0,0,1-1.44,1.14C18.21,130.15,10.57,130.12,2.41,130.12ZM49.18,79.07H96.13L72.61,26.48C64.75,44.13,57,61.5,49.18,79.07Z"/><path class="cls-1" d="M130,0h1.91Q159,0,186.13,0a67.15,67.15,0,0,1,39.14,12.57,58.14,58.14,0,0,1,19.49,23.48,66.67,66.67,0,0,1,5.7,38.42C248,92,239.77,106.26,225.73,116.75c-12.27,9.17-26.3,13.34-41.53,13.37-9.51,0-19,0-28.53,0a2,2,0,0,1-2.14-1.36q-8.62-19.2-17.33-38.36c-1.9-4.21-3.81-8.41-5.65-12.65a7.5,7.5,0,0,1-.62-2.76q0-36.75,0-73.51C129.93,1.11,130,.69,130,0Zm23.72,109.43c8.84,0,17.45-.05,26.06,0a52.48,52.48,0,0,0,18.72-3c8.53-3.15,15.82-8.09,20.84-15.87,6-9.25,8-19.56,7-30.48a43,43,0,0,0-6.68-20.29c-8.34-12.59-20.36-18.66-35.1-19.16-9.67-.33-19.37-.07-29.05-.07-.58,0-1.15.05-1.78.09Z"/></svg>